<?xml version="1.0"?>
<!DOCTYPE svg
  PUBLIC '-//W3C//DTD SVG 1.1//EN'
  'http://www.w3.org/Graphics/SVG/1.1/DTD/svg11.dtd'>
<svg height="287pt" version="1.1" viewBox="88 122 294 287" width="294pt" xmlns="http://www.w3.org/2000/svg" xmlns:xl="http://www.w3.org/1999/xlink">
  <metadata xmlns:dc="http://purl.org/dc/elements/1.1/">
    <dc:date>2013-06-20 01:24Z</dc:date>
    <!-- Produced by OmniGraffle Professional 5.4.3 -->
  </metadata>
  <defs>
    <style type="text/css">
      <![CDATA[
      .grid_icon {
        stroke: #999;
        fill: #EEE;
      } ]]>
    </style>
  </defs>
  <g fill="none" fill-opacity="1" stroke="none" stroke-dasharray="none" stroke-opacity="1" class="grid_icon">
    <g>
      <path d="M 119 129 L 143 129 C 156.25483 129 167 139.74517 167 153 L 167 177 C 167 190.25483 156.25483 201 143 201 L 119 201 C 105.745166 201 95 190.25483 95 177 L 95 153 C 95 139.74517 105.745166 129 119 129 Z" stroke-linecap="round" stroke-linejoin="round" stroke-width="12"/>
      <path d="M 222.64001 129 L 246.64001 129 C 259.89484 129 270.64 139.74517 270.64 153 L 270.64 177 C 270.64 190.25483 259.89484 201 246.64001 201 L 222.64001 201 C 209.38517 201 198.64001 190.25483 198.64001 177 L 198.64001 153 C 198.64001 139.74517 209.38517 129 222.64001 129 Z" stroke-linecap="round" stroke-linejoin="round" stroke-width="12"/>
      <path d="M 326.28 129 L 350.28 129 C 363.53484 129 374.28 139.74517 374.28 153 L 374.28 177 C 374.28 190.25483 363.53484 201 350.28 201 L 326.28 201 C 313.02517 201 302.28 190.25483 302.28 177 L 302.28 153 C 302.28 139.74517 313.02517 129 326.28 129 Z" stroke-linecap="round" stroke-linejoin="round" stroke-width="12"/>
      <path d="M 119.000015 229.44501 L 143.000015 229.44501 C 156.25485 229.44501 167.00002 240.19017 167.00002 253.445 L 167.00002 277.445 C 167.00002 290.69984 156.25485 301.445 143.000015 301.445 L 119.000015 301.445 C 105.74518 301.445 95.000015 290.69984 95.000015 277.445 L 95.000015 253.445 C 95.000015 240.19017 105.74518 229.44501 119.000015 229.44501 Z" stroke-linecap="round" stroke-linejoin="round" stroke-width="12"/>
      <path d="M 222.64002 229.44501 L 246.64002 229.44501 C 259.89486 229.44501 270.64002 240.19017 270.64002 253.445 L 270.64002 277.445 C 270.64002 290.69984 259.89486 301.445 246.64002 301.445 L 222.64002 301.445 C 209.38519 301.445 198.64002 290.69984 198.64002 277.445 L 198.64002 253.445 C 198.64002 240.19017 209.38519 229.44501 222.64002 229.44501 Z" stroke-linecap="round" stroke-linejoin="round" stroke-width="12"/>
      <path d="M 326.28002 229.44501 L 350.28002 229.44501 C 363.53486 229.44501 374.28002 240.19017 374.28002 253.445 L 374.28002 277.445 C 374.28002 290.69984 363.53486 301.445 350.28002 301.445 L 326.28002 301.445 C 313.02519 301.445 302.28002 290.69984 302.28002 277.445 L 302.28002 253.445 C 302.28002 240.19017 313.02519 229.44501 326.28002 229.44501 Z" stroke-linecap="round" stroke-linejoin="round" stroke-width="12"/>
      <path d="M 119.000015 329.89001 L 143.000015 329.89001 C 156.25485 329.89001 167.00002 340.63518 167.00002 353.89001 L 167.00002 377.89001 C 167.00002 391.14485 156.25485 401.89001 143.000015 401.89001 L 119.000015 401.89001 C 105.74518 401.89001 95.000015 391.14485 95.000015 377.89001 L 95.000015 353.89001 C 95.000015 340.63518 105.74518 329.89001 119.000015 329.89001 Z" stroke-linecap="round" stroke-linejoin="round" stroke-width="12"/>
      <path d="M 222.64002 329.89001 L 246.64002 329.89001 C 259.89486 329.89001 270.64002 340.63518 270.64002 353.89001 L 270.64002 377.89001 C 270.64002 391.14485 259.89486 401.89001 246.64002 401.89001 L 222.64002 401.89001 C 209.38519 401.89001 198.64002 391.14485 198.64002 377.89001 L 198.64002 353.89001 C 198.64002 340.63518 209.38519 329.89001 222.64002 329.89001 Z" stroke-linecap="round" stroke-linejoin="round" stroke-width="12"/>
      <path d="M 326.28002 329.89001 L 350.28002 329.89001 C 363.53486 329.89001 374.28002 340.63518 374.28002 353.89001 L 374.28002 377.89001 C 374.28002 391.14485 363.53486 401.89001 350.28002 401.89001 L 326.28002 401.89001 C 313.02519 401.89001 302.28002 391.14485 302.28002 377.89001 L 302.28002 353.89001 C 302.28002 340.63518 313.02519 329.89001 326.28002 329.89001 Z" stroke-linecap="round" stroke-linejoin="round" stroke-width="12"/>
    </g>
  </g>
</svg>