<?xml version="1.0"?>
<!DOCTYPE svg
  PUBLIC '-//W3C//DTD SVG 1.1//EN'
  'http://www.w3.org/Graphics/SVG/1.1/DTD/svg11.dtd'>
<svg height="93pt" version="1.1" viewBox="182 472 124 93" width="124pt" xmlns="http://www.w3.org/2000/svg" xmlns:xl="http://www.w3.org/1999/xlink">
  <metadata xmlns:dc="http://purl.org/dc/elements/1.1/">
    <dc:date>2013-06-20 01:46Z</dc:date>
    <!-- Produced by OmniGraffle Professional 5.4.3 -->
  </metadata>
  <defs>
    <style type="text/css">
      <![CDATA[
      .home_icon {
        stroke: #999;
      } ]]>
    </style>
    <radialGradient cx="0" cy="0" gradientUnits="userSpaceOnUse" id="Gradient" r="1">
      <stop offset="0" stop-color="#999" stop-opacity="1"/>
      <stop offset="1" stop-color="#999" stop-opacity="0"/>
    </radialGradient>
    <radialGradient gradientTransform="translate(244 512.4236) scale(66.515648)" id="Obj_Gradient" xl:href="#Gradient"/>
  </defs>
  <g fill="none" fill-opacity="1" stroke="none" stroke-dasharray="none" stroke-opacity="1" class="home_icon">
    <title>キャンバス 2</title>
    <g>
      <title>レイヤー 1</title>
      <path d="M 209.37601 474.5 L 279.626 474.5 L 280.376 504.5 L 303.126 517.5 C 303.126 517.5 301.5 517.75 297 519.5 C 292.5 521.25 274.126 520.25 249.62601 520.25 C 225.12601 520.25 198.55222 520.25 190.80222 519.25 C 183.05222 518.25 185.12601 518 185.12601 518 L 198.30222 510.75 L 208.87601 505 Z" fill="url(#Obj_Gradient)"/>
      <path d="M 209.37601 474.5 L 279.626 474.5 L 280.376 504.5 L 303.126 517.5 C 303.126 517.5 301.5 517.75 297 519.5 C 292.5 521.25 274.126 520.25 249.62601 520.25 C 225.12601 520.25 198.55222 520.25 190.80222 519.25 C 183.05222 518.25 185.12601 518 185.12601 518 L 198.30222 510.75 L 208.87601 505 Z" stroke-linecap="round" stroke-linejoin="round" stroke-width="1"/>
      <line stroke-linecap="round" stroke-linejoin="round" stroke-width="1" x1="206" x2="206" y1="558.75" y2="520.53444"/>
      <line stroke-linecap="round" stroke-linejoin="round" stroke-width="1" x1="225" x2="225" y1="558.75002" y2="520.53447"/>
      <line stroke-linecap="round" stroke-linejoin="round" stroke-width="1" x1="244" x2="244" y1="558.75" y2="520.53443"/>
      <line stroke-linecap="round" stroke-linejoin="round" stroke-width="1" x1="263" x2="263" y1="558.75002" y2="520.53447"/>
      <line stroke-linecap="round" stroke-linejoin="round" stroke-width="1" x1="282" x2="282" y1="558.75002" y2="520.53447"/>
      <line stroke-linecap="butt" stroke-linejoin="round" stroke-width="4" x1="190" x2="297.25" y1="559.5" y2="558.75002"/>
      <line stroke-linecap="butt" stroke-linejoin="round" stroke-width="2" x1="206" x2="282" y1="530" y2="530.25"/>
      <line stroke-linecap="butt" stroke-linejoin="round" stroke-width="2" x1="201.5" x2="287.75" y1="521.75" y2="521.75"/>
    </g>
  </g>
</svg>